<?xml version="1.0" encoding="UTF-8"?>
<svg xmlns="http://www.w3.org/2000/svg" width="512" height="512" viewBox="0 0 512 512">
  <defs>
    <linearGradient id="bgGrad" x1="0%" y1="0%" x2="100%" y2="100%">
      <stop offset="0%" stop-color="#6d5cf0"/>
      <stop offset="50%" stop-color="#7c6af7"/>
      <stop offset="100%" stop-color="#9b6fff"/>
    </linearGradient>
    <linearGradient id="topGloss" x1="50%" y1="0%" x2="50%" y2="60%">
      <stop offset="0%" stop-color="#ffffff" stop-opacity="0.35"/>
      <stop offset="100%" stop-color="#ffffff" stop-opacity="0"/>
    </linearGradient>
    <radialGradient id="innerShadow" cx="50%" cy="50%" r="50%">
      <stop offset="60%" stop-color="#000" stop-opacity="0"/>
      <stop offset="100%" stop-color="#000" stop-opacity="0.25"/>
    </radialGradient>
    <linearGradient id="bodyGrad" x1="0%" y1="0%" x2="0%" y2="100%">
      <stop offset="0%" stop-color="#ff6b4a"/>
      <stop offset="50%" stop-color="#e84830"/>
      <stop offset="100%" stop-color="#b8281c"/>
    </linearGradient>
    <linearGradient id="bodyHighlight" x1="0%" y1="0%" x2="0%" y2="100%">
      <stop offset="0%" stop-color="#ffb098" stop-opacity="0.9"/>
      <stop offset="100%" stop-color="#ff6b4a" stop-opacity="0"/>
    </linearGradient>
    <linearGradient id="clawGrad" x1="0%" y1="0%" x2="0%" y2="100%">
      <stop offset="0%" stop-color="#ff8b6a"/>
      <stop offset="100%" stop-color="#d8401e"/>
    </linearGradient>
    <linearGradient id="clawGradDark" x1="0%" y1="0%" x2="0%" y2="100%">
      <stop offset="0%" stop-color="#d8401e"/>
      <stop offset="100%" stop-color="#9a2010"/>
    </linearGradient>
    <filter id="cardShadow" x="-20%" y="-20%" width="140%" height="140%">
      <feDropShadow dx="0" dy="14" stdDeviation="22" flood-color="#5c4fe0" flood-opacity="0.55"/>
    </filter>
    <filter id="lobsterShadow" x="-30%" y="-30%" width="160%" height="160%">
      <feDropShadow dx="0" dy="6" stdDeviation="8" flood-color="#000" flood-opacity="0.45"/>
    </filter>
    <clipPath id="squircle">
      <path d="M 256 32 C 410 32, 480 102, 480 256 C 480 410, 410 480, 256 480 C 102 480, 32 410, 32 256 C 32 102, 102 32, 256 32 Z"/>
    </clipPath>
  </defs>

  <path d="M 256 32 C 410 32, 480 102, 480 256 C 480 410, 410 480, 256 480 C 102 480, 32 410, 32 256 C 32 102, 102 32, 256 32 Z"
        fill="#000" opacity="0.3" filter="url(#cardShadow)"/>
  <path d="M 256 32 C 410 32, 480 102, 480 256 C 480 410, 410 480, 256 480 C 102 480, 32 410, 32 256 C 32 102, 102 32, 256 32 Z"
        fill="url(#bgGrad)"/>
  <path d="M 256 32 C 410 32, 480 102, 480 256 C 480 410, 410 480, 256 480 C 102 480, 32 410, 32 256 C 32 102, 102 32, 256 32 Z"
        fill="url(#topGloss)"/>
  <path d="M 256 32 C 410 32, 480 102, 480 256 C 480 410, 410 480, 256 480 C 102 480, 32 410, 32 256 C 32 102, 102 32, 256 32 Z"
        fill="url(#innerShadow)"/>
  <path d="M 256 32 C 410 32, 480 102, 480 256 C 480 410, 410 480, 256 480 C 102 480, 32 410, 32 256 C 32 102, 102 32, 256 32 Z"
        fill="none" stroke="rgba(255,255,255,0.18)" stroke-width="2"/>

  <g transform="translate(256 256)" filter="url(#lobsterShadow)">

    <g stroke-linecap="round" fill="none">
      <path d="M -38 -120 Q -85 -160, -130 -190" stroke="url(#bodyGrad)" stroke-width="5"/>
      <path d="M -130 -190 L -150 -198" stroke="url(#bodyGrad)" stroke-width="3"/>
      <path d="M 38 -120 Q 85 -160, 130 -190" stroke="url(#bodyGrad)" stroke-width="5"/>
      <path d="M 130 -190 L 150 -198" stroke="url(#bodyGrad)" stroke-width="3"/>
    </g>

    <g>
      <path d="M 50 -50 C 90 -90, 140 -80, 145 -30 C 148 0, 130 25, 100 25 C 80 25, 65 15, 60 0 L 75 -10 L 90 -25 L 80 -40 Z"
            fill="#000" opacity="0.25" transform="translate(3 4)"/>
      <path d="M 50 -50 C 90 -90, 140 -80, 145 -30 C 148 0, 130 25, 100 25 C 80 25, 65 15, 60 0 L 75 -10 L 90 -25 L 80 -40 Z"
            fill="url(#clawGradDark)"/>
      <path d="M 100 25 C 80 25, 65 15, 60 0 L 75 -10 L 90 -25 L 100 -10 L 105 5 Z"
            fill="url(#clawGrad)"/>
      <path d="M 50 -50 C 90 -90, 140 -80, 145 -30 C 148 -15, 140 -5, 125 -5 L 110 -15 L 95 -35 L 80 -45 Z"
            fill="url(#clawGrad)"/>
      <path d="M 60 -55 C 90 -85, 130 -78, 138 -38 C 138 -28, 130 -22, 122 -22 L 108 -32 L 92 -50 L 75 -55 Z"
            fill="url(#bodyHighlight)" opacity="0.7"/>
      <ellipse cx="55" cy="-30" rx="8" ry="6" fill="#5a1808" opacity="0.6"/>
      <g fill="#fff" opacity="0.4">
        <circle cx="85" cy="-15" r="1.5"/>
        <circle cx="92" cy="-20" r="1.5"/>
        <circle cx="98" cy="-15" r="1.5"/>
      </g>
    </g>

    <g opacity="0.92">
      <path d="M -50 -50 C -90 -85, -135 -75, -138 -32 C -140 -10, -125 8, -100 10 C -82 12, -68 4, -62 -8 L -78 -18 L -90 -32 L -80 -45 Z"
            fill="url(#clawGradDark)" transform="translate(-3 3)"/>
      <path d="M -50 -50 C -90 -85, -135 -75, -138 -32 C -140 -10, -125 8, -100 10 C -82 12, -68 4, -62 -8 L -78 -18 L -90 -32 L -80 -45 Z"
            fill="url(#clawGradDark)"/>
      <path d="M -60 -55 C -90 -80, -125 -72, -130 -38 L -118 -42 L -100 -50 L -80 -55 Z"
            fill="url(#bodyHighlight)" opacity="0.5"/>
    </g>

    <g>
      <ellipse cx="0" cy="-50" rx="55" ry="60" fill="url(#bodyGrad)"/>
      <ellipse cx="-12" cy="-65" rx="32" ry="38" fill="url(#bodyHighlight)" opacity="0.6"/>

      <ellipse cx="0" cy="20" rx="48" ry="22" fill="url(#bodyGrad)"/>
      <path d="M -45 12 Q 0 8, 45 12" stroke="#7a1810" stroke-width="1.5" fill="none" opacity="0.5"/>
      <ellipse cx="-10" cy="14" rx="28" ry="10" fill="url(#bodyHighlight)" opacity="0.5"/>

      <ellipse cx="0" cy="50" rx="42" ry="20" fill="url(#bodyGrad)"/>
      <path d="M -38 44 Q 0 40, 38 44" stroke="#7a1810" stroke-width="1.5" fill="none" opacity="0.5"/>

      <ellipse cx="0" cy="78" rx="35" ry="17" fill="url(#bodyGrad)"/>
      <path d="M -32 72 Q 0 68, 32 72" stroke="#7a1810" stroke-width="1.5" fill="none" opacity="0.5"/>

      <ellipse cx="0" cy="103" rx="28" ry="14" fill="url(#bodyGrad)"/>

      <path d="M -35 115 L -45 130 L -25 138 L 0 140 L 25 138 L 45 130 L 35 115 Z"
            fill="url(#clawGradDark)"/>
      <g stroke="#7a1810" stroke-width="1" opacity="0.6" fill="none">
        <path d="M -25 122 L -28 135"/>
        <path d="M -10 122 L -10 138"/>
        <path d="M 10 122 L 10 138"/>
        <path d="M 25 122 L 28 135"/>
      </g>
    </g>

    <g>
      <line x1="-25" y1="-95" x2="-35" y2="-108" stroke="url(#bodyGrad)" stroke-width="4" stroke-linecap="round"/>
      <circle cx="-37" cy="-110" r="7" fill="#1a1a22"/>
      <circle cx="-39" cy="-112" r="2.5" fill="#fff"/>
      <circle cx="-36" cy="-109" r="1" fill="#fff" opacity="0.8"/>

      <line x1="25" y1="-95" x2="35" y2="-108" stroke="url(#bodyGrad)" stroke-width="4" stroke-linecap="round"/>
      <circle cx="37" cy="-110" r="7" fill="#1a1a22"/>
      <circle cx="35" cy="-112" r="2.5" fill="#fff"/>
      <circle cx="38" cy="-109" r="1" fill="#fff" opacity="0.8"/>
    </g>

    <g stroke-linecap="round" fill="none">
      <path d="M -45 -10 Q -75 0, -95 25" stroke="url(#bodyGrad)" stroke-width="6"/>
      <path d="M -95 25 L -100 45" stroke="url(#bodyGrad)" stroke-width="4"/>
      <path d="M -48 5 Q -80 18, -100 50" stroke="url(#bodyGrad)" stroke-width="6"/>
      <path d="M -100 50 L -108 70" stroke="url(#bodyGrad)" stroke-width="4"/>
      <path d="M -45 30 Q -75 45, -90 75" stroke="url(#bodyGrad)" stroke-width="5"/>
      <path d="M -90 75 L -95 95" stroke="url(#bodyGrad)" stroke-width="4"/>

      <path d="M 45 -10 Q 75 0, 95 25" stroke="url(#bodyGrad)" stroke-width="6"/>
      <path d="M 95 25 L 100 45" stroke="url(#bodyGrad)" stroke-width="4"/>
      <path d="M 48 5 Q 80 18, 100 50" stroke="url(#bodyGrad)" stroke-width="6"/>
      <path d="M 100 50 L 108 70" stroke="url(#bodyGrad)" stroke-width="4"/>
      <path d="M 45 30 Q 75 45, 90 75" stroke="url(#bodyGrad)" stroke-width="5"/>
      <path d="M 90 75 L 95 95" stroke="url(#bodyGrad)" stroke-width="4"/>
    </g>

    <g stroke-linecap="round" fill="none" opacity="0.85">
      <path d="M -15 -50 Q -25 -30, -22 -10" stroke="url(#bodyGrad)" stroke-width="3"/>
      <path d="M 15 -50 Q 25 -30, 22 -10" stroke="url(#bodyGrad)" stroke-width="3"/>
    </g>

    <path d="M -10 -105 L 0 -118 L 10 -105 Z" fill="url(#clawGradDark)"/>
    <path d="M -5 -110 L 0 -116 L 5 -110 Z" fill="url(#bodyHighlight)" opacity="0.6"/>

    <g stroke="#7a1810" stroke-width="1.2" fill="none" opacity="0.5">
      <path d="M 0 -100 Q 0 -50, 0 0"/>
      <path d="M -50 -15 Q 0 -25, 50 -15"/>
    </g>

    <g fill="#7a1810" opacity="0.35">
      <circle cx="-20" cy="-70" r="1.5"/>
      <circle cx="20" cy="-70" r="1.5"/>
      <circle cx="-25" cy="-40" r="1.5"/>
      <circle cx="25" cy="-40" r="1.5"/>
      <circle cx="-15" cy="-20" r="1.2"/>
      <circle cx="15" cy="-20" r="1.2"/>
      <circle cx="-20" cy="0" r="1.2"/>
      <circle cx="20" cy="0" r="1.2"/>
    </g>
  </g>

  <g transform="translate(396 396)">
    <circle r="34" fill="#0a0a0c" opacity="0.5"/>
    <circle r="32" fill="#131318"/>
    <text x="0" y="5" text-anchor="middle" font-family="-apple-system,BlinkMacSystemFont,Segoe UI,Arial" font-size="20" font-weight="700" fill="#9b8fff">AI</text>
  </g>
</svg>
