<?xml version="1.0" encoding="UTF-8"?>
<svg xmlns="http://www.w3.org/2000/svg" width="164" height="314" viewBox="0 0 164 314">
  <defs>
    <linearGradient id="bg" x1="0%" y1="0%" x2="0%" y2="100%">
      <stop offset="0%" stop-color="#7c6af7"/>
      <stop offset="100%" stop-color="#5c4fe0"/>
    </linearGradient>
    <linearGradient id="claw" x1="0%" y1="0%" x2="0%" y2="100%">
      <stop offset="0%" stop-color="#ffffff"/>
      <stop offset="100%" stop-color="#e0dcfa"/>
    </linearGradient>
  </defs>
  <rect width="164" height="314" fill="url(#bg)"/>
  <rect width="164" height="314" fill="#fff" opacity="0.08"/>

  <!-- Logo -->
  <g transform="translate(82 130)">
    <path d="M -42 -42 C -42 -54, -34 -60, 0 -60 C 34 -60, 42 -54, 42 -42 C 42 -30, 42 -20, 42 0 C 42 35, 34 42, 0 42 C -34 42, -42 35, -42 0 Z"
          fill="#fff" opacity="0.15"/>
    <g transform="scale(0.32) translate(0 14)">
      <path d="M -82 -34 C -100 -100, -42 -148, 32 -130 C 96 -114, 118 -56, 92 24 C 82 50, 60 60, 36 56 L 16 36 L -8 56 L -32 46 L -54 36 Z"
            fill="url(#claw)"/>
      <circle cx="-18" cy="-72" r="9" fill="#1a1a22"/>
      <circle cx="-16" cy="-74" r="3" fill="#fff"/>
    </g>
  </g>

  <!-- Texto -->
  <text x="82" y="220" text-anchor="middle" font-family="Arial" font-size="24" font-weight="800" fill="#fff">PS Claw</text>
  <text x="82" y="244" text-anchor="middle" font-family="Arial" font-size="10" fill="#fff" opacity="0.85" letter-spacing="1">AI AGENT GATEWAY</text>
  <text x="82" y="280" text-anchor="middle" font-family="Arial" font-size="9" fill="#fff" opacity="0.6">v1.2.0</text>
</svg>