<?xml version="1.0" encoding="UTF-8"?>
<svg xmlns="http://www.w3.org/2000/svg" width="150" height="57" viewBox="0 0 150 57">
  <defs>
    <linearGradient id="bg" x1="0%" y1="0%" x2="100%" y2="0%">
      <stop offset="0%" stop-color="#0a0a0c"/>
      <stop offset="100%" stop-color="#1a1a22"/>
    </linearGradient>
    <linearGradient id="logoGrad" x1="0%" y1="0%" x2="100%" y2="100%">
      <stop offset="0%" stop-color="#6d5cf0"/>
      <stop offset="100%" stop-color="#9b6fff"/>
    </linearGradient>
    <linearGradient id="bodyGrad" x1="0%" y1="0%" x2="0%" y2="100%">
      <stop offset="0%" stop-color="#ff6b4a"/>
      <stop offset="100%" stop-color="#b8281c"/>
    </linearGradient>
    <linearGradient id="clawGradDark" x1="0%" y1="0%" x2="0%" y2="100%">
      <stop offset="0%" stop-color="#d8401e"/>
      <stop offset="100%" stop-color="#9a2010"/>
    </linearGradient>
  </defs>
  <rect width="150" height="57" fill="url(#bg)"/>
  <g transform="translate(28 28)">
    <circle r="18" fill="url(#logoGrad)"/>
    <g transform="scale(0.13) translate(0 8)">
      <path d="M 50 -50 C 90 -90, 140 -80, 145 -30 C 148 0, 130 25, 100 25 C 80 25, 65 15, 60 0 L 75 -10 L 90 -25 L 80 -40 Z" fill="url(#clawGradDark)"/>
      <path d="M -50 -50 C -90 -85, -135 -75, -138 -32 C -140 -10, -125 8, -100 10 C -82 12, -68 4, -62 -8 L -78 -18 L -90 -32 L -80 -45 Z" fill="url(#clawGradDark)"/>
      <ellipse cx="0" cy="-50" rx="55" ry="60" fill="url(#bodyGrad)"/>
      <ellipse cx="0" cy="20" rx="48" ry="22" fill="url(#bodyGrad)"/>
      <ellipse cx="0" cy="50" rx="42" ry="20" fill="url(#bodyGrad)"/>
      <ellipse cx="0" cy="78" rx="35" ry="17" fill="url(#bodyGrad)"/>
      <path d="M -35 115 L -45 130 L -25 138 L 0 140 L 25 138 L 45 130 L 35 115 Z" fill="url(#clawGradDark)"/>
      <circle cx="-37" cy="-110" r="7" fill="#1a1a22"/>
      <circle cx="37" cy="-110" r="7" fill="#1a1a22"/>
    </g>
  </g>
  <text x="58" y="35" font-family="Arial" font-size="16" font-weight="800" fill="#ededf2">PS Claw</text>
</svg>